# xmcd
#
# Track frame offsets:
#	150
#	8835
#	20655
#	34652
#	52232
#	65610
#	83600
#	97632
#	110600
#	127332
#
# Disc length: 1961 seconds
#
# Revision: 4
# Processed by: cddbd v1.5.2PL0 Copyright (c) Steve Scherf et al.
# Submitted via: EasyCDDAExtractor 10.2.0.1
#
DISCID=8007a70a
DTITLE=Miss Li - Late Night Heartbroken Blues
DYEAR=2006
DGENRE=blues
TTITLE0=Late Night Heartbroken Blues
TTITLE1=I'm So Poor Won't You Lend Me Some Money
TTITLE2=Hard Loved Man
TTITLE3=Give It To Me
TTITLE4=Seems Like We Lost It
TTITLE5=Oh Boy
TTITLE6=High On You
TTITLE7=Backstabber Lady
TTITLE8=Bring It Back
TTITLE9=Miss Li
EXTD=
EXTT0=
EXTT1=
EXTT2=
EXTT3=
EXTT4=
EXTT5=
EXTT6=
EXTT7=
EXTT8=
EXTT9=
PLAYORDER=
